<svg id="emN6ZQqpAaC1" xmlns="http://www.w3.org/2000/svg" xmlns:xlink="http://www.w3.org/1999/xlink" viewBox="0 0 300 300" shape-rendering="geometricPrecision" text-rendering="geometricPrecision"><path d="M49.82377,213.5304c-7.27062,0-13.16462-6.60985-13.16462-14.76352v-160.59774c0-8.15367,5.894-14.76352,13.16462-14.76352h214.89849c7.27062,0,13.16462,6.60985,13.16462,14.76352v160.59774c0,8.15367-5.894,14.76352-13.16462,14.76352h-214.89849ZM197.2727,163.57309c24.91357,0,45.11-20.19423,45.11-45.10507s-20.19643-45.10507-45.11-45.10507h-81.99937c-24.91357,0-45.11,20.19423-45.11,45.10507s20.19643,45.10507,45.11,45.10507h81.99937Z" fill="#0097b2" stroke-width="0"/><rect width="17.42696" height="189.133777" rx="8" ry="8" transform="matrix(1.529135 0 0 1.529134 23.335059 5.394556)" fill="#0097b2" stroke-width="0" stroke-linecap="round" stroke-miterlimit="20"/><ellipse rx="32.419272" ry="32.419272" transform="translate(190.692285 117.580728)" fill="#fff" stroke-width="0"/></svg>
